<svg xmlns="http://www.w3.org/2000/svg" viewBox="0 0 346 346" width="346" height="346">
	<style>
		tspan { white-space:pre }
		.shp0 { fill: #ffffff } 
		.shp1 { fill: none;stroke: #ffffff;stroke-linecap:round;stroke-width: 2;stroke-dasharray: 0 } 
	</style>
	<path id="Loading " fill="#ffffff" aria-label="Loading"  d="M69.23 326L37.87 326L44.5 278.56L56.56 278.56L51.54 314.14L70.84 314.14L69.23 326ZM74.39 310.39L76.73 294.18Q77.47 288.95 80.89 285.2Q84.37 281.38 88.93 279.64Q93.55 277.89 98.64 277.89Q106.68 277.89 111.91 282.18Q117.13 286.47 116.06 294.18L113.72 310.39Q112.98 315.62 109.63 319.43Q106.28 323.19 101.66 324.93Q97.03 326.67 91.74 326.67Q83.77 326.67 78.54 322.38Q73.31 318.09 74.39 310.39ZM88.72 294.18L86.38 310.39Q86.04 312.8 88.05 314.21Q90.13 315.55 93.08 315.55Q96.3 315.55 98.77 314.14Q101.32 312.67 101.72 310.05L104.07 294.18Q104.47 291.63 102.46 290.22Q100.52 288.81 97.37 288.81Q94.22 288.81 91.67 290.22Q89.13 291.63 88.72 294.18ZM135.69 278.56L146.61 278.56L156.93 326L144.07 326L142.26 316.49L129.59 316.49L125.37 326L112.51 326L135.69 278.56ZM139.04 291.96L133.81 305.83L140.92 305.83L139.51 291.96L139.04 291.96ZM163.16 303.42L174.28 310.05L177.16 289.75L183.26 289.75Q185.74 289.75 187.28 291.16Q188.82 292.5 188.55 294.44L186.28 310.39Q186.01 312.26 184.07 313.54Q182.19 314.74 179.71 314.74L173.61 314.74L161.49 314.61L160.01 326L177.77 326Q185.54 326 191.37 322.05Q197.26 318.09 198.34 310.39L200.61 294.44Q201.69 286.6 196.93 282.58Q192.17 278.56 184.4 278.56L166.65 278.56L163.16 303.42ZM209.19 278.56L221.18 278.56L214.55 326L202.56 326L209.19 278.56ZM234.05 326L222.05 326L228.69 278.56L240.08 278.56L248.72 298.8L251.4 308.31L251.67 308.25L251.53 300.07L254.55 278.56L266.48 278.56L259.84 326L247.72 326L239.61 307.31L236.79 297.79L236.53 297.86L236.66 307.04L234.05 326ZM306.74 288.01L296.02 292.63Q295.49 290.62 293.81 289.62Q292.2 288.55 290.06 288.55Q287.38 288.55 285.17 290.02Q283.02 291.5 282.69 293.97L280.41 310.25Q280.08 312.8 281.89 314.27Q283.69 315.68 286.58 315.68Q289.39 315.68 291.67 314.27Q293.95 312.8 294.28 310.25L294.55 308.25L286.98 308.25L288.32 298.46L307.41 298.46L305.8 310.25Q305.07 315.48 301.78 319.3Q298.5 323.12 294.08 324.93Q289.66 326.67 284.77 326.67Q277.2 326.67 272.24 322.38Q267.35 318.03 268.42 310.25L270.7 293.97Q271.77 286.2 277.87 282.05Q283.96 277.89 291.67 277.89Q296.89 277.89 301.05 280.31Q305.2 282.72 306.74 288.01Z" />
	<g id="Layer">
		<path id="Layer" class="shp0" d="M150.31 147.7C150.31 166.96 142.66 182.57 133.22 182.57C123.78 182.57 116.12 166.96 116.12 147.7C116.12 128.45 123.78 112.84 133.22 112.84C142.66 112.84 150.31 128.45 150.31 147.7ZM235.87 147.96C235.87 167.22 228.22 182.83 218.78 182.83C209.34 182.83 201.69 167.22 201.69 147.96C201.69 128.71 209.34 113.1 218.78 113.1C228.22 113.1 235.87 128.71 235.87 147.96Z" />
		<path id="Layer" class="shp1" d="M287.93 169.42C287.93 169.42 301.01 164.32 307.11 160.16C313.01 156.13 323.95 144.84 323.95 144.84C323.95 144.84 325.32 171.98 321.71 181.86C318.08 191.79 302.23 204.29 302.23 204.29C302.23 204.29 315.6 202.19 322.56 200.85C329.51 199.52 344.53 195.15 344.53 195.15C344.53 195.15 331.22 219.57 320.96 228.79C310.46 238.24 299.13 248.38 281.65 252.31C264.17 256.24 206.19 252.32 206.19 252.32M196.6 46.74C196.6 46.74 247.81 27.45 272.03 20.44C295.83 13.54 343.96 5.65 343.96 5.65C343.96 5.65 319.04 57.48 309.19 86.7C299.41 115.74 286.22 177.56 286.22 177.56M107.29 75.23C107.29 75.23 64.81 100.24 46.48 114.99C29.93 128.3 0.96 156.98 0.96 156.98L41.12 168.16M159.75 251.34C159.75 251.34 101.2 256.11 83.72 252.18C66.24 248.25 54.91 238.1 44.41 228.66C34.15 219.44 20.84 195.02 20.84 195.02C20.84 195.02 35.86 199.39 42.81 200.72C49.77 202.06 63.14 204.16 63.14 204.16C63.14 204.16 47.29 191.66 43.66 181.73C40.05 171.85 41.42 144.71 41.42 144.71C41.42 144.71 52.36 156 58.26 160.02C64.36 164.19 77.43 169.29 77.43 169.29M108.72 230.41C108.72 230.41 127.03 242.66 138.92 246.9C151.61 251.42 166.05 252.46 182.84 252.89C199.63 253.33 214.94 252.26 227.83 248.37C239.92 244.72 260.79 234.25 260.79 234.25M81.29 177.26L77.06 184.93M88.56 178.87L85.13 186.14M96.43 180.08L93.2 187.15M264.12 176.6L259.88 184.27M271.39 178.22L267.96 185.49M279.26 179.43L276.03 186.49M91.86 94.38C91.86 94.38 111.25 59.68 147.88 49.79C195.79 36.86 226.2 54.37 226.2 54.37M128.28 194.88C128.28 194.88 106.89 209.09 124.45 215.54C151.35 225.4 178.78 208.65 178.78 208.65C178.78 208.65 209.07 226.07 227.48 218.97C237.43 215.13 230.44 196.61 219.33 194.88" />
	</g>
</svg>